<mxfile host="app.diagrams.net" agent="Mozilla/5.0 (Windows NT 10.0; Win64; x64) AppleWebKit/537.36 (KHTML, like Gecko) Chrome/136.0.0.0 Safari/537.36" version="27.0.6">
  <diagram name="Page-1" id="qA8ZrmX1tulVBXECU0-0">
    <mxGraphModel dx="1412" dy="729" grid="1" gridSize="10" guides="1" tooltips="1" connect="1" arrows="1" fold="1" page="1" pageScale="1" pageWidth="850" pageHeight="1100" math="0" shadow="0">
      <root>
        <mxCell id="0" />
        <mxCell id="1" parent="0" />
        <mxCell id="P3HWeWXTqfwFd_FK3Ncj-1" value="orders" style="ellipse;whiteSpace=wrap;html=1;" parent="1" vertex="1">
          <mxGeometry x="630" y="60" width="130" height="120" as="geometry" />
        </mxCell>
        <mxCell id="P3HWeWXTqfwFd_FK3Ncj-2" value="inventory" style="ellipse;whiteSpace=wrap;html=1;" parent="1" vertex="1">
          <mxGeometry x="640" y="400" width="130" height="120" as="geometry" />
        </mxCell>
        <mxCell id="P3HWeWXTqfwFd_FK3Ncj-3" value="API&amp;nbsp;&lt;br&gt;gateway" style="shape=cylinder3;whiteSpace=wrap;html=1;boundedLbl=1;backgroundOutline=1;size=15;" parent="1" vertex="1">
          <mxGeometry x="290" y="250" width="90" height="130" as="geometry" />
        </mxCell>
        <mxCell id="P3HWeWXTqfwFd_FK3Ncj-5" value="Eureka&amp;nbsp;&lt;br&gt;service&amp;nbsp;&lt;br&gt;registry" style="html=1;whiteSpace=wrap;shape=isoCube2;backgroundOutline=1;isoAngle=15;" parent="1" vertex="1">
          <mxGeometry x="480" y="260" width="200" height="110" as="geometry" />
        </mxCell>
        <mxCell id="P3HWeWXTqfwFd_FK3Ncj-6" value="" style="endArrow=classic;startArrow=classic;html=1;rounded=0;exitX=1.044;exitY=0.562;exitDx=0;exitDy=0;exitPerimeter=0;entryX=0;entryY=0;entryDx=0;entryDy=61.9842481839768;entryPerimeter=0;" parent="1" source="P3HWeWXTqfwFd_FK3Ncj-3" target="P3HWeWXTqfwFd_FK3Ncj-5" edge="1">
          <mxGeometry width="50" height="50" relative="1" as="geometry">
            <mxPoint x="400" y="400" as="sourcePoint" />
            <mxPoint x="460" y="320" as="targetPoint" />
          </mxGeometry>
        </mxCell>
        <mxCell id="P3HWeWXTqfwFd_FK3Ncj-7" value="" style="endArrow=classic;startArrow=classic;html=1;rounded=0;entryX=0.277;entryY=0.975;entryDx=0;entryDy=0;entryPerimeter=0;exitX=0.62;exitY=0.091;exitDx=0;exitDy=0;exitPerimeter=0;" parent="1" source="P3HWeWXTqfwFd_FK3Ncj-5" target="P3HWeWXTqfwFd_FK3Ncj-1" edge="1">
          <mxGeometry width="50" height="50" relative="1" as="geometry">
            <mxPoint x="400" y="400" as="sourcePoint" />
            <mxPoint x="450" y="350" as="targetPoint" />
          </mxGeometry>
        </mxCell>
        <mxCell id="P3HWeWXTqfwFd_FK3Ncj-8" value="" style="endArrow=classic;startArrow=classic;html=1;rounded=0;entryX=0;entryY=0;entryDx=0;entryDy=0;exitX=0.645;exitY=0.882;exitDx=0;exitDy=0;exitPerimeter=0;" parent="1" source="P3HWeWXTqfwFd_FK3Ncj-5" target="P3HWeWXTqfwFd_FK3Ncj-2" edge="1">
          <mxGeometry width="50" height="50" relative="1" as="geometry">
            <mxPoint x="400" y="400" as="sourcePoint" />
            <mxPoint x="450" y="350" as="targetPoint" />
          </mxGeometry>
        </mxCell>
        <mxCell id="P3HWeWXTqfwFd_FK3Ncj-9" value="" style="endArrow=classic;startArrow=classic;html=1;rounded=0;entryX=0;entryY=0.642;entryDx=0;entryDy=0;entryPerimeter=0;exitX=0.956;exitY=0.177;exitDx=0;exitDy=0;exitPerimeter=0;" parent="1" source="P3HWeWXTqfwFd_FK3Ncj-3" target="P3HWeWXTqfwFd_FK3Ncj-1" edge="1">
          <mxGeometry width="50" height="50" relative="1" as="geometry">
            <mxPoint x="400" y="400" as="sourcePoint" />
            <mxPoint x="450" y="350" as="targetPoint" />
          </mxGeometry>
        </mxCell>
        <mxCell id="P3HWeWXTqfwFd_FK3Ncj-10" value="" style="endArrow=classic;startArrow=classic;html=1;rounded=0;exitX=0.855;exitY=1;exitDx=0;exitDy=-4.35;exitPerimeter=0;entryX=0.054;entryY=0.742;entryDx=0;entryDy=0;entryPerimeter=0;" parent="1" source="P3HWeWXTqfwFd_FK3Ncj-3" target="P3HWeWXTqfwFd_FK3Ncj-2" edge="1">
          <mxGeometry width="50" height="50" relative="1" as="geometry">
            <mxPoint x="400" y="400" as="sourcePoint" />
            <mxPoint x="450" y="350" as="targetPoint" />
          </mxGeometry>
        </mxCell>
        <mxCell id="P3HWeWXTqfwFd_FK3Ncj-11" value="" style="endArrow=classic;startArrow=classic;html=1;rounded=0;entryX=0.646;entryY=0.95;entryDx=0;entryDy=0;entryPerimeter=0;exitX=0.592;exitY=-0.017;exitDx=0;exitDy=0;exitPerimeter=0;" parent="1" source="P3HWeWXTqfwFd_FK3Ncj-2" target="P3HWeWXTqfwFd_FK3Ncj-1" edge="1">
          <mxGeometry width="50" height="50" relative="1" as="geometry">
            <mxPoint x="400" y="400" as="sourcePoint" />
            <mxPoint x="450" y="350" as="targetPoint" />
          </mxGeometry>
        </mxCell>
        <mxCell id="P3HWeWXTqfwFd_FK3Ncj-12" value="frontend" style="rounded=1;whiteSpace=wrap;html=1;" parent="1" vertex="1">
          <mxGeometry x="50" y="290" width="120" height="60" as="geometry" />
        </mxCell>
        <mxCell id="P3HWeWXTqfwFd_FK3Ncj-13" value="" style="endArrow=classic;startArrow=classic;html=1;rounded=0;entryX=0;entryY=0.5;entryDx=0;entryDy=0;entryPerimeter=0;exitX=1;exitY=0.5;exitDx=0;exitDy=0;" parent="1" source="P3HWeWXTqfwFd_FK3Ncj-12" target="P3HWeWXTqfwFd_FK3Ncj-3" edge="1">
          <mxGeometry width="50" height="50" relative="1" as="geometry">
            <mxPoint x="400" y="400" as="sourcePoint" />
            <mxPoint x="450" y="350" as="targetPoint" />
          </mxGeometry>
        </mxCell>
        <mxCell id="P3HWeWXTqfwFd_FK3Ncj-16" value="" style="image;sketch=0;aspect=fixed;html=1;points=[];align=center;fontSize=12;image=img/lib/mscae/App_Configuration.svg;" parent="1" vertex="1">
          <mxGeometry x="1030" y="210" width="153.06" height="150" as="geometry" />
        </mxCell>
        <mxCell id="P3HWeWXTqfwFd_FK3Ncj-17" value="Configuration repository" style="text;html=1;align=center;verticalAlign=middle;whiteSpace=wrap;rounded=0;" parent="1" vertex="1">
          <mxGeometry x="1060" y="380" width="113.47" height="40" as="geometry" />
        </mxCell>
        <mxCell id="P3HWeWXTqfwFd_FK3Ncj-25" style="edgeStyle=orthogonalEdgeStyle;rounded=0;orthogonalLoop=1;jettySize=auto;html=1;" parent="1" source="P3HWeWXTqfwFd_FK3Ncj-19" target="P3HWeWXTqfwFd_FK3Ncj-16" edge="1">
          <mxGeometry relative="1" as="geometry" />
        </mxCell>
        <mxCell id="P3HWeWXTqfwFd_FK3Ncj-19" value="Configuration&lt;br&gt;server&amp;nbsp;" style="ellipse;whiteSpace=wrap;html=1;aspect=fixed;" parent="1" vertex="1">
          <mxGeometry x="820" y="245" width="115" height="115" as="geometry" />
        </mxCell>
        <mxCell id="P3HWeWXTqfwFd_FK3Ncj-20" value="" style="endArrow=classic;startArrow=classic;html=1;rounded=0;entryX=1;entryY=1;entryDx=0;entryDy=0;" parent="1" source="P3HWeWXTqfwFd_FK3Ncj-19" target="P3HWeWXTqfwFd_FK3Ncj-1" edge="1">
          <mxGeometry width="50" height="50" relative="1" as="geometry">
            <mxPoint x="400" y="400" as="sourcePoint" />
            <mxPoint x="450" y="350" as="targetPoint" />
          </mxGeometry>
        </mxCell>
        <mxCell id="P3HWeWXTqfwFd_FK3Ncj-21" value="" style="endArrow=classic;startArrow=classic;html=1;rounded=0;exitX=0;exitY=1;exitDx=0;exitDy=0;" parent="1" source="P3HWeWXTqfwFd_FK3Ncj-19" target="P3HWeWXTqfwFd_FK3Ncj-2" edge="1">
          <mxGeometry width="50" height="50" relative="1" as="geometry">
            <mxPoint x="847" y="271" as="sourcePoint" />
            <mxPoint x="751" y="172" as="targetPoint" />
          </mxGeometry>
        </mxCell>
        <mxCell id="P3HWeWXTqfwFd_FK3Ncj-22" value="" style="endArrow=classic;startArrow=classic;html=1;rounded=0;entryX=0;entryY=0.5;entryDx=0;entryDy=0;exitX=1;exitY=0.5;exitDx=0;exitDy=0;exitPerimeter=0;" parent="1" source="P3HWeWXTqfwFd_FK3Ncj-5" target="P3HWeWXTqfwFd_FK3Ncj-19" edge="1">
          <mxGeometry width="50" height="50" relative="1" as="geometry">
            <mxPoint x="400" y="400" as="sourcePoint" />
            <mxPoint x="450" y="350" as="targetPoint" />
          </mxGeometry>
        </mxCell>
        <mxCell id="ZG0UYTA_cYqRftDGvERL-1" value="" style="shape=table;startSize=0;container=1;collapsible=0;childLayout=tableLayout;fontSize=16;" vertex="1" parent="1">
          <mxGeometry x="40" y="30" width="180" height="120" as="geometry" />
        </mxCell>
        <mxCell id="ZG0UYTA_cYqRftDGvERL-2" value="" style="shape=tableRow;horizontal=0;startSize=0;swimlaneHead=0;swimlaneBody=0;strokeColor=inherit;top=0;left=0;bottom=0;right=0;collapsible=0;dropTarget=0;fillColor=none;points=[[0,0.5],[1,0.5]];portConstraint=eastwest;fontSize=16;" vertex="1" parent="ZG0UYTA_cYqRftDGvERL-1">
          <mxGeometry width="180" height="40" as="geometry" />
        </mxCell>
        <mxCell id="ZG0UYTA_cYqRftDGvERL-3" value="" style="shape=partialRectangle;html=1;whiteSpace=wrap;connectable=0;strokeColor=inherit;overflow=hidden;fillColor=none;top=0;left=0;bottom=0;right=0;pointerEvents=1;fontSize=16;" vertex="1" parent="ZG0UYTA_cYqRftDGvERL-2">
          <mxGeometry width="60" height="40" as="geometry">
            <mxRectangle width="60" height="40" as="alternateBounds" />
          </mxGeometry>
        </mxCell>
        <mxCell id="ZG0UYTA_cYqRftDGvERL-4" value="" style="shape=partialRectangle;html=1;whiteSpace=wrap;connectable=0;strokeColor=inherit;overflow=hidden;fillColor=none;top=0;left=0;bottom=0;right=0;pointerEvents=1;fontSize=16;" vertex="1" parent="ZG0UYTA_cYqRftDGvERL-2">
          <mxGeometry x="60" width="60" height="40" as="geometry">
            <mxRectangle width="60" height="40" as="alternateBounds" />
          </mxGeometry>
        </mxCell>
        <mxCell id="ZG0UYTA_cYqRftDGvERL-5" value="" style="shape=partialRectangle;html=1;whiteSpace=wrap;connectable=0;strokeColor=inherit;overflow=hidden;fillColor=none;top=0;left=0;bottom=0;right=0;pointerEvents=1;fontSize=16;" vertex="1" parent="ZG0UYTA_cYqRftDGvERL-2">
          <mxGeometry x="120" width="60" height="40" as="geometry">
            <mxRectangle width="60" height="40" as="alternateBounds" />
          </mxGeometry>
        </mxCell>
        <mxCell id="ZG0UYTA_cYqRftDGvERL-6" value="" style="shape=tableRow;horizontal=0;startSize=0;swimlaneHead=0;swimlaneBody=0;strokeColor=inherit;top=0;left=0;bottom=0;right=0;collapsible=0;dropTarget=0;fillColor=none;points=[[0,0.5],[1,0.5]];portConstraint=eastwest;fontSize=16;" vertex="1" parent="ZG0UYTA_cYqRftDGvERL-1">
          <mxGeometry y="40" width="180" height="40" as="geometry" />
        </mxCell>
        <mxCell id="ZG0UYTA_cYqRftDGvERL-7" value="" style="shape=partialRectangle;html=1;whiteSpace=wrap;connectable=0;strokeColor=inherit;overflow=hidden;fillColor=none;top=0;left=0;bottom=0;right=0;pointerEvents=1;fontSize=16;" vertex="1" parent="ZG0UYTA_cYqRftDGvERL-6">
          <mxGeometry width="60" height="40" as="geometry">
            <mxRectangle width="60" height="40" as="alternateBounds" />
          </mxGeometry>
        </mxCell>
        <mxCell id="ZG0UYTA_cYqRftDGvERL-8" value="" style="shape=partialRectangle;html=1;whiteSpace=wrap;connectable=0;strokeColor=inherit;overflow=hidden;fillColor=none;top=0;left=0;bottom=0;right=0;pointerEvents=1;fontSize=16;" vertex="1" parent="ZG0UYTA_cYqRftDGvERL-6">
          <mxGeometry x="60" width="60" height="40" as="geometry">
            <mxRectangle width="60" height="40" as="alternateBounds" />
          </mxGeometry>
        </mxCell>
        <mxCell id="ZG0UYTA_cYqRftDGvERL-9" value="cashier" style="shape=partialRectangle;html=1;whiteSpace=wrap;connectable=0;strokeColor=inherit;overflow=hidden;fillColor=none;top=0;left=0;bottom=0;right=0;pointerEvents=1;fontSize=16;" vertex="1" parent="ZG0UYTA_cYqRftDGvERL-6">
          <mxGeometry x="120" width="60" height="40" as="geometry">
            <mxRectangle width="60" height="40" as="alternateBounds" />
          </mxGeometry>
        </mxCell>
        <mxCell id="ZG0UYTA_cYqRftDGvERL-10" value="" style="shape=tableRow;horizontal=0;startSize=0;swimlaneHead=0;swimlaneBody=0;strokeColor=inherit;top=0;left=0;bottom=0;right=0;collapsible=0;dropTarget=0;fillColor=none;points=[[0,0.5],[1,0.5]];portConstraint=eastwest;fontSize=16;" vertex="1" parent="ZG0UYTA_cYqRftDGvERL-1">
          <mxGeometry y="80" width="180" height="40" as="geometry" />
        </mxCell>
        <mxCell id="ZG0UYTA_cYqRftDGvERL-11" value="" style="shape=partialRectangle;html=1;whiteSpace=wrap;connectable=0;strokeColor=inherit;overflow=hidden;fillColor=none;top=0;left=0;bottom=0;right=0;pointerEvents=1;fontSize=16;" vertex="1" parent="ZG0UYTA_cYqRftDGvERL-10">
          <mxGeometry width="60" height="40" as="geometry">
            <mxRectangle width="60" height="40" as="alternateBounds" />
          </mxGeometry>
        </mxCell>
        <mxCell id="ZG0UYTA_cYqRftDGvERL-12" value="" style="shape=partialRectangle;html=1;whiteSpace=wrap;connectable=0;strokeColor=inherit;overflow=hidden;fillColor=none;top=0;left=0;bottom=0;right=0;pointerEvents=1;fontSize=16;" vertex="1" parent="ZG0UYTA_cYqRftDGvERL-10">
          <mxGeometry x="60" width="60" height="40" as="geometry">
            <mxRectangle width="60" height="40" as="alternateBounds" />
          </mxGeometry>
        </mxCell>
        <mxCell id="ZG0UYTA_cYqRftDGvERL-13" value="" style="shape=partialRectangle;html=1;whiteSpace=wrap;connectable=0;strokeColor=inherit;overflow=hidden;fillColor=none;top=0;left=0;bottom=0;right=0;pointerEvents=1;fontSize=16;" vertex="1" parent="ZG0UYTA_cYqRftDGvERL-10">
          <mxGeometry x="120" width="60" height="40" as="geometry">
            <mxRectangle width="60" height="40" as="alternateBounds" />
          </mxGeometry>
        </mxCell>
        <mxCell id="ZG0UYTA_cYqRftDGvERL-15" style="edgeStyle=orthogonalEdgeStyle;rounded=0;orthogonalLoop=1;jettySize=auto;html=1;" edge="1" parent="1" source="ZG0UYTA_cYqRftDGvERL-14" target="P3HWeWXTqfwFd_FK3Ncj-3">
          <mxGeometry relative="1" as="geometry" />
        </mxCell>
        <mxCell id="ZG0UYTA_cYqRftDGvERL-14" value="SSO" style="html=1;whiteSpace=wrap;shape=isoCube2;backgroundOutline=1;isoAngle=15;" vertex="1" parent="1">
          <mxGeometry x="330" y="50" width="140" height="90" as="geometry" />
        </mxCell>
      </root>
    </mxGraphModel>
  </diagram>
</mxfile>
